<svg width="170" height="38" viewBox="0 0 170 38" fill="none" xmlns="http://www.w3.org/2000/svg">
<path fill-rule="evenodd" clip-rule="evenodd" d="M30.7256 19.0038V30.7089C28.9142 31.3903 30.2794 32.5061 30.2794 32.5061V34.7575H15.0228V37.4567L12.3324 36.1071L9.64197 37.4567V34.7575H9.1958C9.1958 34.7575 5.60639 34.8912 5.60639 31.6041C5.60639 31.6175 5.59307 22.0102 5.60639 20.801C5.6197 19.6786 5.60639 19.0105 5.60639 19.0038L6.05257 17.6542C5.84612 17.7344 5.62636 17.7678 5.4066 17.7611C-0.327127 17.6542 -0.307149 12.4631 0.218943 10.9064C2.18346 3.8981 8.29678 6.85777 8.29678 6.85777C8.44328 6.90454 8.59645 6.90454 8.74296 6.85777C10.7008 1.57312 15.7686 0.390586 18.6122 0.55093C28.0951 0.838212 28.4814 7.75302 28.4814 7.75302C29.5136 7.51919 30.5857 7.51919 31.6246 7.75302C35.88 8.9556 36.0398 11.5411 36.113 14.0532C36.0131 19.3779 30.7323 19.0038 30.7323 19.0038H30.7256ZM9.64197 32.5061V31.6041H15.0228V32.4994H18.2992C21.5223 32.4994 25.1717 32.4994 27.589 32.4994C26.9497 31.9916 27.1428 31.1966 27.3559 30.7022H9.14918C8.4899 30.7824 7.8506 31.0095 7.8506 31.6041C7.8506 32.4459 8.62975 32.5127 9.64197 32.5061ZM26.69 10.9064C25.7377 11.5612 26.124 10.7394 25.9508 10.4655C26.9897 7.42566 25.1783 4.27223 20.863 3.25673C13.5244 2.12764 11.5066 6.81101 10.9938 7.75971C10.5277 8.61487 10.0216 10.3519 9.64863 10.9131C9.56206 9.764 6.59198 8.21401 5.16021 8.66164C3.40879 9.26961 2.29001 11.0133 2.46982 12.2627C2.35661 16.3114 6.84503 15.4161 8.30344 15.4161C9.56206 15.4161 8.10366 15.7234 7.84394 19.8389C7.84394 22.0236 7.8506 28.0164 7.8506 28.0164V28.6979C8.58313 28.5242 9.33564 28.444 10.0948 28.4707H28.4814C28.4747 25.785 28.4547 19.9525 28.4814 19.0172C28.488 18.0551 28.7211 17.0062 28.9276 16.7657C33.3361 17.5741 33.8355 15.0687 33.6491 14.9752C35.0342 10.5724 29.8399 8.74849 26.6833 10.9131L26.69 10.9064ZM15.4756 13.6056H25.3448V15.4027H15.4756V13.6056ZM11.8862 13.6056H13.6776V15.4027H11.8862V13.6056ZM25.3448 19.0038H11.8862V17.2066H25.3448V19.0038ZM25.3448 22.6048H11.8862V20.8077H25.3448V22.6048ZM19.5112 25.7583H11.8862V23.9611H19.5112V25.7583ZM137.069 31.7578C137.069 30.4283 139.16 30.3949 139.16 31.7578C139.16 33.1207 137.069 33.1207 137.069 31.7578ZM132.614 20.948L132.168 20.968C132.168 19.7654 131.289 19.1975 130.144 19.1374C128.792 19.1975 127.979 19.7855 127.979 20.8811C127.979 22.7251 129.904 22.4712 132.135 22.7251C134.366 22.9857 136.603 24.3152 136.603 27.2882C136.603 30.9494 133.746 32.5328 130.157 32.5328C130.084 32.5328 130.017 32.5328 129.95 32.5261C129.871 32.5261 129.791 32.5328 129.711 32.5328C125.755 32.5328 123.378 30.5218 123.378 27.2882H127.753C127.833 28.4106 128.425 29.072 130.137 29.1255C131.522 29.0319 132.221 28.2102 132.221 27.4352C132.221 26.0188 130.383 25.9921 128.379 25.7315C125.948 25.4175 123.604 24.3686 123.604 21.0816C123.604 17.3068 126.288 15.6366 129.91 15.6366C129.984 15.6366 130.05 15.6366 130.124 15.6433C130.204 15.6433 130.283 15.6366 130.363 15.6366C134.466 15.6366 136.617 17.8012 136.617 20.8077L132.628 20.968C132.628 20.968 132.628 20.9546 132.628 20.948H132.614ZM121.799 25.7583H113.275L113.222 25.932C113.222 28.4774 114.154 29.072 115.593 29.1322C117.304 29.072 118.21 28.2302 118.21 27.1078H122.246C122.246 30.622 120.174 32.5061 115.793 32.5061C115.719 32.5061 115.653 32.5061 115.579 32.5061C115.506 32.5061 115.426 32.5061 115.346 32.5061C110.965 32.5061 108.873 30.4951 108.873 25.9854V22.1906C108.873 17.995 110.965 15.67 115.346 15.67C115.426 15.67 115.506 15.67 115.586 15.6767C115.659 15.6767 115.726 15.67 115.793 15.67C120.174 15.67 122.266 17.681 122.266 22.1906L122.246 25.7583H121.799ZM115.686 19.0506C113.602 19.1508 113.275 20.6607 113.275 22.6048H118.21C118.21 20.5805 117.697 19.1508 115.686 19.0506ZM101.921 32.6263C101.841 32.6263 101.768 32.6263 101.688 32.6196C101.615 32.6196 101.548 32.6263 101.475 32.6263C100.203 32.5862 98.9843 32.0985 98.0187 31.2634V37.4633H93.9831V15.8571L97.3727 15.7234V15.7435L97.8189 15.7234L98.0187 17.0062C98.7579 16.131 99.9899 15.6099 101.581 15.6099C101.641 15.6099 101.701 15.6099 101.761 15.6165C101.848 15.6165 101.934 15.6099 102.028 15.6099C105.304 15.6099 107.435 17.5073 107.435 22.1572V26.2059C107.435 30.1477 105.617 32.6196 101.914 32.6196L101.921 32.6263ZM103.406 22.1572C103.406 19.8924 102.354 19.1575 100.962 19.0773C99.1708 19.1641 98.5048 20.5471 98.5048 22.4178V26.246C98.5048 28.1634 99.3772 28.9451 100.802 29.0186C102.347 28.9451 103.413 28.13 103.413 26.2126V22.1639L103.406 22.1572ZM89.5147 14.4741C88.3692 14.3271 87.5501 13.2982 87.65 12.1491C87.7499 11 88.7355 10.1315 89.8876 10.1849C91.0396 10.2383 91.9453 11.1937 91.9387 12.3495C91.952 12.9709 91.6923 13.5722 91.2261 13.9797C90.76 14.3872 90.134 14.5743 89.5213 14.4741H89.5147ZM78.9862 29.0253C80.8242 28.9518 81.4967 28.0632 81.5234 26.1658H85.6456C85.6456 30.6755 83.5545 32.4927 79.1726 32.4927C79.0661 32.4927 78.9662 32.4927 78.8663 32.4927C78.8197 32.4927 78.7731 32.4927 78.7264 32.4927C74.3446 32.4927 72.4466 30.8024 72.4466 26.2059V22.1572C72.4466 17.6476 74.4578 15.4228 78.8397 15.4228C78.9262 15.4228 79.0061 15.4228 79.0861 15.4295C79.1526 15.4295 79.2192 15.4228 79.2858 15.4228C83.6677 15.4228 85.6456 17.2066 85.6456 21.7163H81.5234C81.5234 19.899 80.8974 18.9637 79.1593 18.8902C77.1748 18.9704 76.4756 20.1596 76.4756 22.1572V25.7583C76.4756 27.7626 77.0949 28.9518 78.9795 29.0253H78.9862ZM70.2024 25.7583H61.6784L61.6251 25.932C61.6251 28.4774 62.5575 29.072 63.9959 29.1322C65.7073 29.072 66.613 28.2302 66.613 27.1078H70.6486C70.6486 30.622 68.5775 32.5061 64.1957 32.5061C64.1224 32.5061 64.0558 32.5061 63.9826 32.5061C63.9093 32.5061 63.8294 32.5061 63.7495 32.5061C59.3676 32.5061 57.19 30.7155 57.19 26.2059V22.1572C57.19 17.9616 59.3676 15.6633 63.7495 15.6633C63.8294 15.6633 63.9093 15.6633 63.9892 15.67C64.0625 15.67 64.1224 15.6633 64.1957 15.6633C68.5775 15.6633 70.6486 17.6476 70.6486 22.1572V25.7583H70.2024ZM64.0891 19.0506C62.0047 19.1508 61.6784 20.6607 61.6784 22.6048H66.613C66.613 20.5805 66.1003 19.1508 64.0891 19.0506ZM56.2976 32.5061H51.8092L47.3208 23.0525H45.9756V32.5061H41.4872V8.65496H47.767C53.0212 8.65496 55.8448 10.3319 55.8448 14.9551V17.2066C55.8448 19.8189 54.5262 21.6628 51.9024 22.5113L56.7438 32.5061H56.2976ZM51.363 15.8571V15.4094C51.363 13.3383 50.797 12.256 47.7736 12.256H45.9822V19.4581H47.7736C50.5972 19.4581 51.4496 18.5161 51.363 15.8571ZM87.7033 15.8571H91.7389V32.5127L89.4947 32.4994L87.2571 32.5127V15.8571H87.7033ZM140.719 16.2245V32.6998H142.13V21.1283C142.13 19.2309 143.116 17.1598 146.086 17.1598C149.056 17.1598 149.875 18.2689 149.875 21.9501V32.6998H151.287V21.9501C151.287 17.6676 150.102 15.9105 146.226 15.9105C144.188 15.9105 142.836 16.759 142.071 17.9816L141.957 16.2245H140.712H140.719ZM161.889 28.1901C161.889 30.1477 161.296 31.5106 158.273 31.5106C155.249 31.5106 154.397 29.8938 154.397 26.5199V24.6492H163.354V22.1839C163.354 17.8213 162.082 15.9172 158.266 15.9172C154.703 15.9172 153.039 17.6476 153.039 22.1839V26.6335C153.039 31.1431 154.703 32.7867 158.266 32.7867C161.629 32.7867 163.154 31.1966 163.154 28.1901H161.882H161.889ZM154.397 23.3397V22.1171C154.397 18.6297 155.216 17.0997 158.273 17.0997C161.549 17.0997 162.115 19.0305 162.115 22.204V23.3397H154.397ZM164.966 28.0498C164.966 31.7377 166.211 33.1274 170 32.7599V31.5106C167.316 31.711 166.384 31.1164 166.384 28.0231V17.3068H169.807V15.9773H166.384V12.0623L164.972 12.2627V28.0565L164.966 28.0498Z" fill="#114980"/>
</svg>
