<svg width="20" height="21" viewBox="0 0 20 21" fill="none" xmlns="http://www.w3.org/2000/svg">
<path d="M14.1455 16.3867C12.3699 17.739 10.1529 18.3652 7.93852 18.14C5.72415 17.9148 3.67598 16.8548 2.20437 15.1724C0.732771 13.4899 -0.0535852 11.3093 0.00283915 9.06731C0.0592635 6.82535 0.954321 4.68767 2.50866 3.08254C4.06301 1.47741 6.16184 0.523378 8.38469 0.411581C10.6075 0.299784 12.7902 1.03848 14.4955 2.47967C16.2007 3.92086 17.3025 5.95811 17.5802 8.18327C17.8579 10.4084 17.2909 12.6571 15.9929 14.4789L20 18.5176L18.1331 20.4005L14.1455 16.3867ZM2.22472 9.30101C2.22123 10.6216 2.60669 11.9136 3.33227 13.0134C4.05785 14.1131 5.09092 14.9713 6.30073 15.4791C7.51055 15.9869 8.84269 16.1216 10.1285 15.8661C11.4143 15.6106 12.596 14.9764 13.524 14.0439C14.4519 13.1113 15.0844 11.9222 15.3414 10.6272C15.5984 9.33226 15.4682 7.98955 14.9675 6.76911C14.4668 5.54867 13.618 4.50538 12.5285 3.77131C11.4391 3.03724 10.1579 2.6454 8.84735 2.6454C7.0939 2.64516 5.41193 3.34573 4.1704 4.59344C2.92888 5.84115 2.22916 7.53413 2.22472 9.30101ZM12.4876 8.85671C12.4872 8.41904 12.4013 7.98572 12.2348 7.58151C12.0682 7.1773 11.8242 6.81011 11.5168 6.50092C11.2094 6.19173 10.8446 5.94659 10.4431 5.77951C10.0417 5.61242 9.6115 5.52666 9.17716 5.52713C9.10661 5.52713 9.0396 5.54224 8.96994 5.54757V4.42349C9.03696 4.42349 9.1022 4.41283 9.1701 4.41283C10.3395 4.41283 11.461 4.88093 12.2879 5.71415C13.1148 6.54737 13.5793 7.67747 13.5793 8.85583L12.4876 8.85671Z" fill="#254E6F"/>
</svg>
