<svg width="25" height="25" viewBox="0 0 25 25" fill="none" xmlns="http://www.w3.org/2000/svg">
<path d="M13.16 24.801L11.547 24.79C11.262 24.73 10.966 24.69 10.681 24.658C10.381 24.62 10.064 24.581 9.76196 24.514C7.46467 24.0458 5.35605 22.9116 3.69897 21.253L4.87402 19.004C4.92202 19.058 4.97402 19.117 5.04102 19.189C5.72985 17.4745 6.99476 16.0537 8.61804 15.171C7.70897 14.3465 7.07741 13.2608 6.81006 12.063C6.59846 11.0197 6.69959 9.93707 7.10095 8.95103C7.51537 7.88032 8.23834 6.95669 9.1781 6.29713C10.1179 5.63757 11.2322 5.27176 12.38 5.24603C13.6619 5.26457 14.9027 5.701 15.9139 6.48903C16.6164 7.02559 17.1785 7.72425 17.5522 8.52531C17.926 9.32637 18.1003 10.206 18.0601 11.089C18.0342 11.8611 17.8537 12.6201 17.5294 13.3212C17.2051 14.0224 16.7435 14.6513 16.172 15.171C17.4564 15.8673 18.5228 16.9057 19.2531 18.171L20.734 21.641C18.6449 23.5294 15.9718 24.6447 13.16 24.801ZM12.391 16.601C11.2129 16.5994 10.0648 16.972 9.11206 17.665C8.06627 18.4537 7.32446 19.579 7.01196 20.851C8.62196 21.8714 10.4887 22.4136 12.3948 22.4145C14.3009 22.4154 16.1681 21.8749 17.7791 20.856C17.4975 19.6403 16.8108 18.5564 15.8319 17.7825C14.853 17.0085 13.6399 16.5905 12.392 16.597L12.391 16.601ZM12.391 7.65203C11.5208 7.65469 10.6873 8.0029 10.0739 8.62008C9.46042 9.23727 9.11734 10.0729 9.12 10.943C9.12265 11.8132 9.47083 12.6467 10.088 13.2601C10.7052 13.8736 11.5408 14.2167 12.411 14.214C12.8419 14.2127 13.2682 14.1265 13.6658 13.9605C14.0633 13.7944 14.4244 13.5516 14.7281 13.246C15.0319 12.9404 15.2724 12.5779 15.436 12.1794C15.5997 11.7808 15.6833 11.3539 15.682 10.923C15.6807 10.4922 15.5946 10.0658 15.4285 9.66821C15.2624 9.27064 15.0196 8.90968 14.714 8.60594C14.4084 8.3022 14.0459 8.06163 13.6473 7.89796C13.2488 7.73428 12.8219 7.65072 12.391 7.65203ZM22.21 20.008L21.103 17.415C21.9664 15.8964 22.4134 14.1768 22.399 12.43C22.3846 10.6832 21.9093 8.97119 21.021 7.46703C20.191 5.99557 19.0078 4.7539 17.578 3.85403C16.0561 2.90564 14.2962 2.40903 12.5031 2.42203H12.358C10.6206 2.41738 8.91268 2.87121 7.40674 3.73769C5.9008 4.60417 4.65015 5.85263 3.78101 7.35703C2.92469 8.81669 2.44365 10.4659 2.38098 12.157C2.32026 13.9041 2.73277 15.6351 3.57495 17.167L2.30005 19.608C0.945796 17.7272 0.148645 15.5029 0 13.19V11.68C0.0717073 10.0981 0.463043 8.54717 1.15051 7.12067C1.83798 5.69417 2.80734 4.4217 4 3.38003C6.33389 1.24746 9.36887 0.0448637 12.53 3.28982e-05C13.958 -0.00345177 15.3731 0.269925 16.697 0.805033C18.4938 1.43441 20.115 2.48225 21.4268 3.862C22.7385 5.24175 23.7031 6.9138 24.241 8.74003C24.7874 10.6482 24.889 12.6563 24.538 14.6098C24.1869 16.5634 23.3925 18.4105 22.2159 20.009L22.21 20.008Z" fill="#074881"/>
</svg>
