<svg width="26" height="27" viewBox="0 0 26 27" fill="none" xmlns="http://www.w3.org/2000/svg">
<path d="M17.8897 11.3598H8.0797V13.0598H17.8897V11.3598Z" fill="#064781"/>
<path d="M17.8897 14.1098H8.0797V15.8098H17.8897V14.1098Z" fill="#064781"/>
<path d="M13.8197 16.7998H8.0797V18.5098H13.8197V16.7998Z" fill="#064781"/>
<path d="M22.5897 5.48981C22.0097 5.33981 21.0497 5.32981 20.4797 5.42981C20.3097 4.39981 19.2597 0.559809 13.3297 0.399809C10.8697 0.279809 7.5397 1.39981 6.1797 4.89981C6.1497 4.89981 6.1197 4.89981 6.0997 4.88981C6.0297 4.84981 4.3197 3.99981 2.6197 4.71981C1.4897 5.19981 0.659698 6.25981 0.129698 7.87981C-0.0603016 8.58981 -0.180302 10.2698 0.729698 11.5498C1.3997 12.4998 2.4797 13.0198 3.9297 13.0798C3.9897 13.0798 4.0497 13.0798 4.1097 13.0798L3.8797 13.7398L3.8997 13.8098C3.8997 13.8098 4.0297 14.2898 4.0297 14.7298V20.0398C4.0297 21.0098 4.3197 21.7698 4.8797 22.3098C5.8997 23.2898 7.4497 23.1898 7.4997 23.1798H12.7497L16.5997 26.2898C16.6497 26.3498 16.7397 26.4098 16.8497 26.4098C16.8797 26.4098 16.9097 26.4098 16.9397 26.3998C17.1397 26.3298 17.1997 26.0698 17.2197 25.8798C17.2397 25.7098 17.2797 25.3298 17.3197 24.8798C17.3797 24.3098 17.4397 23.6398 17.4897 23.1798H18.3397C18.4097 23.1798 19.9797 23.1598 20.8397 22.3598C22.0097 21.2798 21.9897 19.9298 21.9797 19.8798V13.8598C22.5097 13.8398 23.9197 13.6998 24.9297 12.7298C25.6097 12.0698 25.9697 11.1598 25.9997 10.0098C25.9697 8.37981 25.5497 6.38981 22.5797 5.49981L22.5897 5.48981ZM5.7997 14.1498C5.8997 12.6198 6.2597 11.8898 6.4297 11.5398C6.5297 11.3498 6.5997 11.1998 6.5097 11.0598C6.4197 10.9098 6.2397 10.9098 5.9997 10.9098C5.8597 10.9098 5.6897 10.9198 5.4897 10.9298C4.6097 10.9898 3.2697 11.0698 2.5697 10.3598C2.2297 10.0198 2.0797 9.53981 2.0997 8.88981C2.1497 7.72981 2.7797 6.87981 3.8497 6.51981C4.6197 6.30981 5.4197 6.45981 6.0597 6.92981C6.5197 7.27981 6.7397 7.68981 6.7597 7.93981L6.7997 8.59981L7.1397 8.04981C7.2697 7.83981 7.4197 7.44981 7.5897 6.98981C7.7497 6.54981 7.9197 6.10981 8.0797 5.80981L8.1497 5.66981C9.5897 2.95981 11.8397 1.89981 14.8497 2.51981C16.4497 2.89981 17.5797 3.65981 18.1297 4.69981C18.5697 5.52981 18.6197 6.52981 18.2697 7.53981C18.2197 7.69981 18.1397 8.08981 18.3797 8.25981C18.6097 8.42981 18.8997 8.24981 19.1097 8.09981C20.3397 7.13981 22.0597 7.32981 23.0197 8.05981C23.4997 8.42981 24.2397 9.25981 23.7297 10.7098V10.7298C23.7297 10.7298 23.2197 12.2798 20.6097 11.8498L20.5097 11.8298L20.4397 11.9098C20.1597 12.1998 20.1497 13.4398 20.1497 13.5798V19.2298C20.1497 19.7698 20.0897 20.3898 19.6197 20.8698C19.2697 21.2298 18.3997 21.2698 18.0797 21.2598H15.9397L15.7697 22.9598C15.7697 22.9598 15.7697 23.0098 15.7697 23.0298L13.5697 21.2598H7.6197C6.9997 21.2598 6.5297 21.0898 6.2297 20.7498C5.7797 20.2398 5.8297 19.4998 5.8297 19.4798V14.1398L5.7997 14.1498Z" fill="#064781"/>
</svg>
